<svg xmlns="http://www.w3.org/2000/svg" viewBox="0 0 104 128" width="208" height="256" shape-rendering="crispEdges">
<g fill="#c1121f"><rect x="30" y="0" width="4" height="2" fill-opacity="1"/><rect x="28" y="2" width="2" height="2" fill-opacity="0.24"/><rect x="30" y="2" width="8" height="2" fill-opacity="1"/><rect x="26" y="4" width="2" height="2" fill-opacity="0.24"/><rect x="28" y="4" width="2" height="2" fill-opacity="0.48"/><rect x="30" y="4" width="8" height="2" fill-opacity="1"/><rect x="38" y="4" width="2" height="2" fill-opacity="0.48"/><rect x="26" y="6" width="2" height="2" fill-opacity="0.24"/><rect x="28" y="6" width="12" height="2" fill-opacity="1"/><rect x="40" y="6" width="4" height="2" fill-opacity="0.72"/><rect x="26" y="8" width="6" height="2" fill-opacity="1"/><rect x="32" y="8" width="2" height="2" fill-opacity="0.24"/><rect x="34" y="8" width="14" height="2" fill-opacity="1"/><rect x="26" y="10" width="6" height="2" fill-opacity="1"/><rect x="32" y="10" width="4" height="2" fill-opacity="0.24"/><rect x="36" y="10" width="14" height="2" fill-opacity="1"/><rect x="60" y="10" width="2" height="2" fill-opacity="0.24"/><rect x="62" y="10" width="4" height="2" fill-opacity="1"/><rect x="24" y="12" width="2" height="2" fill-opacity="0.72"/><rect x="26" y="12" width="6" height="2" fill-opacity="1"/><rect x="32" y="12" width="4" height="2" fill-opacity="0.72"/><rect x="36" y="12" width="14" height="2" fill-opacity="1"/><rect x="50" y="12" width="8" height="2" fill-opacity="0.72"/><rect x="58" y="12" width="2" height="2" fill-opacity="0.24"/><rect x="60" y="12" width="2" height="2" fill-opacity="0.72"/><rect x="62" y="12" width="4" height="2" fill-opacity="1"/><rect x="66" y="12" width="2" height="2" fill-opacity="0.72"/><rect x="80" y="12" width="6" height="2" fill-opacity="0.72"/><rect x="24" y="14" width="44" height="2" fill-opacity="1"/><rect x="68" y="14" width="12" height="2" fill-opacity="0.24"/><rect x="80" y="14" width="6" height="2" fill-opacity="1"/><rect x="24" y="16" width="62" height="2" fill-opacity="1"/><rect x="22" y="18" width="2" height="2" fill-opacity="0.24"/><rect x="24" y="18" width="62" height="2" fill-opacity="1"/><rect x="20" y="20" width="2" height="2" fill-opacity="0.48"/><rect x="22" y="20" width="54" height="2" fill-opacity="1"/><rect x="76" y="20" width="2" height="2" fill-opacity="0.24"/><rect x="78" y="20" width="2" height="2" fill-opacity="0.48"/><rect x="80" y="20" width="8" height="2" fill-opacity="1"/><rect x="18" y="22" width="58" height="2" fill-opacity="1"/><rect x="76" y="22" width="4" height="2" fill-opacity="0.24"/><rect x="80" y="22" width="8" height="2" fill-opacity="1"/><rect x="16" y="24" width="2" height="2" fill-opacity="0.48"/><rect x="18" y="24" width="40" height="2" fill-opacity="1"/><rect x="58" y="24" width="2" height="2" fill-opacity="0.48"/><rect x="60" y="24" width="16" height="2" fill-opacity="1"/><rect x="76" y="24" width="2" height="2" fill-opacity="0.48"/><rect x="78" y="24" width="2" height="2" fill-opacity="0.24"/><rect x="80" y="24" width="8" height="2" fill-opacity="1"/><rect x="16" y="26" width="6" height="2" fill-opacity="0.24"/><rect x="22" y="26" width="12" height="2" fill-opacity="1"/><rect x="34" y="26" width="2" height="2" fill-opacity="0.24"/><rect x="36" y="26" width="20" height="2" fill-opacity="1"/><rect x="56" y="26" width="2" height="2" fill-opacity="0.24"/><rect x="60" y="26" width="18" height="2" fill-opacity="1"/><rect x="78" y="26" width="2" height="2" fill-opacity="0.72"/><rect x="80" y="26" width="8" height="2" fill-opacity="1"/><rect x="20" y="28" width="2" height="2" fill-opacity="0.48"/><rect x="22" y="28" width="10" height="2" fill-opacity="1"/><rect x="32" y="28" width="2" height="2" fill-opacity="0.48"/><rect x="36" y="28" width="18" height="2" fill-opacity="1"/><rect x="54" y="28" width="2" height="2" fill-opacity="0.48"/><rect x="60" y="28" width="28" height="2" fill-opacity="1"/><rect x="18" y="30" width="2" height="2" fill-opacity="0.72"/><rect x="20" y="30" width="10" height="2" fill-opacity="1"/><rect x="30" y="30" width="2" height="2" fill-opacity="0.24"/><rect x="36" y="30" width="10" height="2" fill-opacity="1"/><rect x="46" y="30" width="4" height="2" fill-opacity="0.24"/><rect x="50" y="30" width="4" height="2" fill-opacity="1"/><rect x="62" y="30" width="26" height="2" fill-opacity="1"/><rect x="14" y="32" width="2" height="2" fill-opacity="0.24"/><rect x="16" y="32" width="2" height="2" fill-opacity="0.48"/><rect x="18" y="32" width="12" height="2" fill-opacity="1"/><rect x="34" y="32" width="2" height="2" fill-opacity="0.48"/><rect x="36" y="32" width="8" height="2" fill-opacity="1"/><rect x="44" y="32" width="2" height="2" fill-opacity="0.24"/><rect x="62" y="32" width="26" height="2" fill-opacity="1"/><rect x="16" y="34" width="12" height="2" fill-opacity="1"/><rect x="28" y="34" width="2" height="2" fill-opacity="0.24"/><rect x="34" y="34" width="6" height="2" fill-opacity="1"/><rect x="40" y="34" width="4" height="2" fill-opacity="0.24"/><rect x="62" y="34" width="26" height="2" fill-opacity="1"/><rect x="14" y="36" width="2" height="2" fill-opacity="0.48"/><rect x="16" y="36" width="10" height="2" fill-opacity="1"/><rect x="26" y="36" width="4" height="2" fill-opacity="0.48"/><rect x="34" y="36" width="6" height="2" fill-opacity="0.48"/><rect x="62" y="36" width="26" height="2" fill-opacity="1"/><rect x="12" y="38" width="16" height="2" fill-opacity="1"/><rect x="30" y="38" width="2" height="2" fill-opacity="1"/><rect x="62" y="38" width="26" height="2" fill-opacity="1"/><rect x="12" y="40" width="14" height="2" fill-opacity="1"/><rect x="32" y="40" width="2" height="2" fill-opacity="1"/><rect x="52" y="40" width="4" height="2" fill-opacity="1"/><rect x="62" y="40" width="24" height="2" fill-opacity="1"/><rect x="12" y="42" width="2" height="2" fill-opacity="1"/><rect x="14" y="42" width="2" height="2" fill-opacity="0.24"/><rect x="16" y="42" width="10" height="2" fill-opacity="1"/><rect x="32" y="42" width="2" height="2" fill-opacity="1"/><rect x="50" y="42" width="2" height="2" fill-opacity="1"/><rect x="56" y="42" width="2" height="2" fill-opacity="1"/><rect x="64" y="42" width="2" height="2" fill-opacity="1"/><rect x="68" y="42" width="18" height="2" fill-opacity="1"/><rect x="12" y="44" width="2" height="2" fill-opacity="0.24"/><rect x="16" y="44" width="6" height="2" fill-opacity="1"/><rect x="22" y="44" width="2" height="2" fill-opacity="0.24"/><rect x="24" y="44" width="2" height="2" fill-opacity="1"/><rect x="32" y="44" width="2" height="2" fill-opacity="1"/><rect x="48" y="44" width="2" height="2" fill-opacity="0.72"/><rect x="58" y="44" width="2" height="2" fill-opacity="0.72"/><rect x="64" y="44" width="2" height="2" fill-opacity="0.24"/><rect x="68" y="44" width="18" height="2" fill-opacity="1"/><rect x="12" y="46" width="2" height="2" fill-opacity="0.24"/><rect x="14" y="46" width="8" height="2" fill-opacity="1"/><rect x="26" y="46" width="2" height="2" fill-opacity="1"/><rect x="30" y="46" width="2" height="2" fill-opacity="1"/><rect x="48" y="46" width="2" height="2" fill-opacity="1"/><rect x="58" y="46" width="2" height="2" fill-opacity="1"/><rect x="68" y="46" width="18" height="2" fill-opacity="1"/><rect x="12" y="48" width="2" height="2" fill-opacity="0.72"/><rect x="14" y="48" width="8" height="2" fill-opacity="1"/><rect x="26" y="48" width="2" height="2" fill-opacity="0.24"/><rect x="28" y="48" width="2" height="2" fill-opacity="0.72"/><rect x="30" y="48" width="2" height="2" fill-opacity="0.24"/><rect x="48" y="48" width="2" height="2" fill-opacity="1"/><rect x="58" y="48" width="2" height="2" fill-opacity="1"/><rect x="68" y="48" width="2" height="2" fill-opacity="0.24"/><rect x="70" y="48" width="14" height="2" fill-opacity="1"/><rect x="84" y="48" width="2" height="2" fill-opacity="0.24"/><rect x="12" y="50" width="10" height="2" fill-opacity="1"/><rect x="50" y="50" width="2" height="2" fill-opacity="1"/><rect x="56" y="50" width="2" height="2" fill-opacity="1"/><rect x="70" y="50" width="14" height="2" fill-opacity="1"/><rect x="10" y="52" width="4" height="2" fill-opacity="1"/><rect x="14" y="52" width="2" height="2" fill-opacity="0.24"/><rect x="16" y="52" width="6" height="2" fill-opacity="1"/><rect x="22" y="52" width="4" height="2" fill-opacity="0.24"/><rect x="52" y="52" width="4" height="2" fill-opacity="1"/><rect x="56" y="52" width="2" height="2" fill-opacity="0.24"/><rect x="70" y="52" width="14" height="2" fill-opacity="1"/><rect x="10" y="54" width="4" height="2" fill-opacity="0.24"/><rect x="16" y="54" width="6" height="2" fill-opacity="1"/><rect x="22" y="54" width="2" height="2" fill-opacity="0.24"/><rect x="52" y="54" width="4" height="2" fill-opacity="0.24"/><rect x="68" y="54" width="2" height="2" fill-opacity="0.72"/><rect x="70" y="54" width="14" height="2" fill-opacity="1"/><rect x="16" y="56" width="4" height="2" fill-opacity="1"/><rect x="52" y="56" width="4" height="2" fill-opacity="0.24"/><rect x="68" y="56" width="14" height="2" fill-opacity="1"/><rect x="82" y="56" width="2" height="2" fill-opacity="0.24"/><rect x="16" y="58" width="4" height="2" fill-opacity="1"/><rect x="36" y="58" width="4" height="2" fill-opacity="1"/><rect x="68" y="58" width="14" height="2" fill-opacity="1"/><rect x="16" y="60" width="4" height="2" fill-opacity="1"/><rect x="68" y="60" width="12" height="2" fill-opacity="1"/><rect x="80" y="60" width="2" height="2" fill-opacity="0.24"/><rect x="16" y="62" width="4" height="2" fill-opacity="1"/><rect x="68" y="62" width="10" height="2" fill-opacity="1"/><rect x="78" y="62" width="2" height="2" fill-opacity="0.24"/><rect x="16" y="64" width="2" height="2" fill-opacity="0.24"/><rect x="18" y="64" width="2" height="2" fill-opacity="1"/><rect x="20" y="64" width="2" height="2" fill-opacity="0.48"/><rect x="66" y="64" width="2" height="2" fill-opacity="0.48"/><rect x="68" y="64" width="10" height="2" fill-opacity="1"/><rect x="18" y="66" width="2" height="2" fill-opacity="0.24"/><rect x="20" y="66" width="2" height="2" fill-opacity="1"/><rect x="66" y="66" width="10" height="2" fill-opacity="1"/><rect x="76" y="66" width="2" height="2" fill-opacity="0.48"/><rect x="22" y="68" width="2" height="2" fill-opacity="1"/><rect x="66" y="68" width="10" height="2" fill-opacity="1"/><rect x="22" y="70" width="4" height="2" fill-opacity="1"/><rect x="64" y="70" width="10" height="2" fill-opacity="1"/><rect x="20" y="72" width="2" height="2" fill-opacity="0.72"/><rect x="26" y="72" width="2" height="2" fill-opacity="1"/><rect x="28" y="72" width="8" height="2" fill-opacity="0.72"/><rect x="56" y="72" width="8" height="2" fill-opacity="0.72"/><rect x="64" y="72" width="8" height="2" fill-opacity="1"/><rect x="74" y="72" width="2" height="2" fill-opacity="1"/><rect x="18" y="74" width="2" height="2" fill-opacity="1"/><rect x="20" y="74" width="2" height="2" fill-opacity="0.24"/><rect x="36" y="74" width="20" height="2" fill-opacity="1"/><rect x="66" y="74" width="2" height="2" fill-opacity="1"/><rect x="76" y="74" width="2" height="2" fill-opacity="1"/><rect x="18" y="76" width="2" height="2" fill-opacity="1"/><rect x="20" y="76" width="4" height="2" fill-opacity="0.24"/><rect x="36" y="76" width="2" height="2" fill-opacity="0.24"/><rect x="38" y="76" width="2" height="2" fill-opacity="1"/><rect x="40" y="76" width="6" height="2" fill-opacity="0.24"/><rect x="46" y="76" width="2" height="2" fill-opacity="1"/><rect x="48" y="76" width="8" height="2" fill-opacity="0.24"/><rect x="66" y="76" width="2" height="2" fill-opacity="0.24"/><rect x="76" y="76" width="2" height="2" fill-opacity="1"/><rect x="18" y="78" width="2" height="2" fill-opacity="1"/><rect x="20" y="78" width="4" height="2" fill-opacity="0.24"/><rect x="32" y="78" width="8" height="2" fill-opacity="0.24"/><rect x="40" y="78" width="2" height="2" fill-opacity="0.72"/><rect x="44" y="78" width="2" height="2" fill-opacity="0.72"/><rect x="46" y="78" width="10" height="2" fill-opacity="0.24"/><rect x="76" y="78" width="2" height="2" fill-opacity="1"/><rect x="18" y="80" width="2" height="2" fill-opacity="1"/><rect x="20" y="80" width="4" height="2" fill-opacity="0.24"/><rect x="30" y="80" width="10" height="2" fill-opacity="0.24"/><rect x="40" y="80" width="2" height="2" fill-opacity="1"/><rect x="44" y="80" width="2" height="2" fill-opacity="1"/><rect x="46" y="80" width="12" height="2" fill-opacity="0.24"/><rect x="76" y="80" width="2" height="2" fill-opacity="1"/><rect x="18" y="82" width="2" height="2" fill-opacity="1"/><rect x="20" y="82" width="16" height="2" fill-opacity="0.24"/><rect x="36" y="82" width="4" height="2" fill-opacity="1"/><rect x="40" y="82" width="6" height="2" fill-opacity="0.72"/><rect x="46" y="82" width="2" height="2" fill-opacity="1"/><rect x="48" y="82" width="16" height="2" fill-opacity="0.24"/><rect x="64" y="82" width="2" height="2" fill-opacity="1"/><rect x="66" y="82" width="2" height="2" fill-opacity="0.24"/><rect x="72" y="82" width="4" height="2" fill-opacity="0.24"/><rect x="76" y="82" width="2" height="2" fill-opacity="1"/><rect x="20" y="84" width="2" height="2" fill-opacity="1"/><rect x="22" y="84" width="8" height="2" fill-opacity="0.24"/><rect x="30" y="84" width="10" height="2" fill-opacity="1"/><rect x="40" y="84" width="6" height="2" fill-opacity="0.72"/><rect x="46" y="84" width="16" height="2" fill-opacity="1"/><rect x="62" y="84" width="2" height="2" fill-opacity="0.24"/><rect x="64" y="84" width="2" height="2" fill-opacity="1"/><rect x="66" y="84" width="8" height="2" fill-opacity="0.24"/><rect x="74" y="84" width="2" height="2" fill-opacity="1"/><rect x="20" y="86" width="2" height="2" fill-opacity="0.24"/><rect x="22" y="86" width="6" height="2" fill-opacity="0.72"/><rect x="28" y="86" width="12" height="2" fill-opacity="1"/><rect x="40" y="86" width="6" height="2" fill-opacity="0.72"/><rect x="46" y="86" width="16" height="2" fill-opacity="1"/><rect x="62" y="86" width="2" height="2" fill-opacity="0.72"/><rect x="64" y="86" width="8" height="2" fill-opacity="0.24"/><rect x="72" y="86" width="2" height="2" fill-opacity="0.48"/><rect x="74" y="86" width="2" height="2" fill-opacity="0.24"/><rect x="28" y="88" width="12" height="2" fill-opacity="1"/><rect x="40" y="88" width="6" height="2" fill-opacity="0.72"/><rect x="46" y="88" width="18" height="2" fill-opacity="1"/><rect x="64" y="88" width="8" height="2" fill-opacity="0.24"/><rect x="72" y="88" width="2" height="2" fill-opacity="0.48"/><rect x="28" y="90" width="12" height="2" fill-opacity="1"/><rect x="40" y="90" width="6" height="2" fill-opacity="0.72"/><rect x="46" y="90" width="18" height="2" fill-opacity="1"/><rect x="64" y="90" width="4" height="2" fill-opacity="0.24"/><rect x="68" y="90" width="2" height="2" fill-opacity="1"/><rect x="70" y="90" width="2" height="2" fill-opacity="0.72"/><rect x="72" y="90" width="2" height="2" fill-opacity="0.24"/><rect x="20" y="92" width="6" height="2" fill-opacity="1"/><rect x="28" y="92" width="10" height="2" fill-opacity="1"/><rect x="38" y="92" width="8" height="2" fill-opacity="0.72"/><rect x="46" y="92" width="22" height="2" fill-opacity="1"/><rect x="18" y="94" width="2" height="2" fill-opacity="1"/><rect x="20" y="94" width="8" height="2" fill-opacity="0.72"/><rect x="28" y="94" width="10" height="2" fill-opacity="1"/><rect x="38" y="94" width="8" height="2" fill-opacity="0.72"/><rect x="46" y="94" width="36" height="2" fill-opacity="1"/><rect x="18" y="96" width="2" height="2" fill-opacity="1"/><rect x="20" y="96" width="6" height="2" fill-opacity="0.72"/><rect x="26" y="96" width="12" height="2" fill-opacity="1"/><rect x="38" y="96" width="8" height="2" fill-opacity="0.72"/><rect x="46" y="96" width="26" height="2" fill-opacity="1"/><rect x="72" y="96" width="18" height="2" fill-opacity="0.72"/><rect x="16" y="98" width="2" height="2" fill-opacity="1"/><rect x="18" y="98" width="8" height="2" fill-opacity="0.72"/><rect x="26" y="98" width="12" height="2" fill-opacity="1"/><rect x="38" y="98" width="6" height="2" fill-opacity="0.72"/><rect x="44" y="98" width="30" height="2" fill-opacity="1"/><rect x="74" y="98" width="16" height="2" fill-opacity="0.72"/><rect x="90" y="98" width="6" height="2" fill-opacity="1"/><rect x="16" y="100" width="2" height="2" fill-opacity="1"/><rect x="18" y="100" width="6" height="2" fill-opacity="0.72"/><rect x="24" y="100" width="14" height="2" fill-opacity="1"/><rect x="38" y="100" width="6" height="2" fill-opacity="0.72"/><rect x="44" y="100" width="32" height="2" fill-opacity="1"/><rect x="76" y="100" width="14" height="2" fill-opacity="0.72"/><rect x="90" y="100" width="6" height="2" fill-opacity="1"/><rect x="96" y="100" width="2" height="2" fill-opacity="0.24"/><rect x="14" y="102" width="4" height="2" fill-opacity="1"/><rect x="18" y="102" width="6" height="2" fill-opacity="0.72"/><rect x="24" y="102" width="14" height="2" fill-opacity="1"/><rect x="38" y="102" width="6" height="2" fill-opacity="0.72"/><rect x="44" y="102" width="34" height="2" fill-opacity="1"/><rect x="78" y="102" width="20" height="2" fill-opacity="0.72"/><rect x="98" y="102" width="2" height="2" fill-opacity="0.48"/><rect x="14" y="104" width="2" height="2" fill-opacity="1"/><rect x="16" y="104" width="8" height="2" fill-opacity="0.72"/><rect x="24" y="104" width="54" height="2" fill-opacity="1"/><rect x="78" y="104" width="8" height="2" fill-opacity="0.24"/><rect x="86" y="104" width="2" height="2" fill-opacity="1"/><rect x="88" y="104" width="14" height="2" fill-opacity="0.72"/><rect x="12" y="106" width="2" height="2" fill-opacity="1"/><rect x="14" y="106" width="8" height="2" fill-opacity="0.72"/><rect x="22" y="106" width="2" height="2" fill-opacity="1"/><rect x="32" y="106" width="2" height="2" fill-opacity="1"/><rect x="38" y="106" width="2" height="2" fill-opacity="1"/><rect x="44" y="106" width="34" height="2" fill-opacity="1"/><rect x="86" y="106" width="2" height="2" fill-opacity="0.24"/><rect x="88" y="106" width="2" height="2" fill-opacity="1"/><rect x="90" y="106" width="10" height="2" fill-opacity="0.72"/><rect x="100" y="106" width="2" height="2" fill-opacity="1"/><rect x="10" y="108" width="2" height="2" fill-opacity="1"/><rect x="12" y="108" width="10" height="2" fill-opacity="0.72"/><rect x="22" y="108" width="2" height="2" fill-opacity="1"/><rect x="24" y="108" width="4" height="2" fill-opacity="0.24"/><rect x="38" y="108" width="2" height="2" fill-opacity="1"/><rect x="48" y="108" width="32" height="2" fill-opacity="1"/><rect x="90" y="108" width="2" height="2" fill-opacity="1"/><rect x="92" y="108" width="8" height="2" fill-opacity="0.72"/><rect x="100" y="108" width="2" height="2" fill-opacity="1"/><rect x="10" y="110" width="2" height="2" fill-opacity="1"/><rect x="12" y="110" width="10" height="2" fill-opacity="0.72"/><rect x="22" y="110" width="2" height="2" fill-opacity="1"/><rect x="24" y="110" width="4" height="2" fill-opacity="0.24"/><rect x="36" y="110" width="4" height="2" fill-opacity="1"/><rect x="48" y="110" width="32" height="2" fill-opacity="1"/><rect x="92" y="110" width="2" height="2" fill-opacity="1"/><rect x="94" y="110" width="8" height="2" fill-opacity="0.72"/><rect x="102" y="110" width="2" height="2" fill-opacity="1"/><rect x="10" y="112" width="2" height="2" fill-opacity="1"/><rect x="12" y="112" width="10" height="2" fill-opacity="0.72"/><rect x="22" y="112" width="2" height="2" fill-opacity="1"/><rect x="24" y="112" width="10" height="2" fill-opacity="0.24"/><rect x="34" y="112" width="4" height="2" fill-opacity="0.48"/><rect x="38" y="112" width="2" height="2" fill-opacity="0.24"/><rect x="48" y="112" width="32" height="2" fill-opacity="1"/><rect x="92" y="112" width="2" height="2" fill-opacity="1"/><rect x="94" y="112" width="8" height="2" fill-opacity="0.72"/><rect x="102" y="112" width="2" height="2" fill-opacity="1"/><rect x="10" y="114" width="2" height="2" fill-opacity="0.24"/><rect x="12" y="114" width="12" height="2" fill-opacity="1"/><rect x="24" y="114" width="2" height="2" fill-opacity="0.72"/><rect x="26" y="114" width="8" height="2" fill-opacity="0.24"/><rect x="34" y="114" width="2" height="2" fill-opacity="1"/><rect x="36" y="114" width="6" height="2" fill-opacity="0.24"/><rect x="46" y="114" width="2" height="2" fill-opacity="0.72"/><rect x="48" y="114" width="30" height="2" fill-opacity="1"/><rect x="78" y="114" width="2" height="2" fill-opacity="0.24"/><rect x="92" y="114" width="2" height="2" fill-opacity="1"/><rect x="94" y="114" width="8" height="2" fill-opacity="0.72"/><rect x="102" y="114" width="2" height="2" fill-opacity="1"/><rect x="26" y="116" width="2" height="2" fill-opacity="1"/><rect x="28" y="116" width="8" height="2" fill-opacity="0.24"/><rect x="36" y="116" width="2" height="2" fill-opacity="1"/><rect x="38" y="116" width="8" height="2" fill-opacity="0.24"/><rect x="46" y="116" width="30" height="2" fill-opacity="1"/><rect x="90" y="116" width="2" height="2" fill-opacity="1"/><rect x="92" y="116" width="8" height="2" fill-opacity="0.72"/><rect x="100" y="116" width="2" height="2" fill-opacity="1"/><rect x="26" y="118" width="2" height="2" fill-opacity="0.24"/><rect x="28" y="118" width="10" height="2" fill-opacity="1"/><rect x="38" y="118" width="8" height="2" fill-opacity="0.24"/><rect x="46" y="118" width="26" height="2" fill-opacity="1"/><rect x="72" y="118" width="2" height="2" fill-opacity="0.48"/><rect x="74" y="118" width="2" height="2" fill-opacity="0.24"/><rect x="86" y="118" width="2" height="2" fill-opacity="0.24"/><rect x="88" y="118" width="2" height="2" fill-opacity="1"/><rect x="90" y="118" width="10" height="2" fill-opacity="0.72"/><rect x="100" y="118" width="2" height="2" fill-opacity="1"/><rect x="28" y="120" width="6" height="2" fill-opacity="0.24"/><rect x="38" y="120" width="8" height="2" fill-opacity="0.72"/><rect x="46" y="120" width="2" height="2" fill-opacity="0.24"/><rect x="48" y="120" width="10" height="2" fill-opacity="1"/><rect x="58" y="120" width="12" height="2" fill-opacity="0.24"/><rect x="72" y="120" width="2" height="2" fill-opacity="0.24"/><rect x="86" y="120" width="12" height="2" fill-opacity="0.72"/><rect x="98" y="120" width="2" height="2" fill-opacity="1"/><rect x="100" y="120" width="2" height="2" fill-opacity="0.24"/><rect x="50" y="122" width="6" height="2" fill-opacity="0.72"/><rect x="86" y="122" width="2" height="2" fill-opacity="1"/><rect x="88" y="122" width="10" height="2" fill-opacity="0.72"/><rect x="86" y="124" width="2" height="2" fill-opacity="0.48"/><rect x="88" y="124" width="6" height="2" fill-opacity="1"/><rect x="94" y="124" width="2" height="2" fill-opacity="0.48"/><rect x="86" y="126" width="2" height="2" fill-opacity="0.24"/><rect x="88" y="126" width="6" height="2" fill-opacity="0.72"/></g>
</svg>